<?xml version="1.0" encoding="UTF-8"?>
<svg width="109px" height="24px" viewBox="0 0 109 24" version="1.1" xmlns="http://www.w3.org/2000/svg" xmlns:xlink="http://www.w3.org/1999/xlink">
    <!-- Generator: Sketch 53.2 (72643) - https://sketchapp.com -->
    <title>Group 33</title>
    <desc>Created with Sketch.</desc>
    <defs>
        <polygon id="path-1" points="0.0648183993 0.0768200837 10.7555424 0.0768200837 10.7555424 3.9880569 0.0648183993 3.9880569"></polygon>
        <polygon id="path-3" points="0.0386764489 0.0558527197 2.29030359 0.0558527197 2.29030359 2.31074812 0.0386764489 2.31074812"></polygon>
    </defs>
    <g id="Page-1" stroke="none" stroke-width="1" fill="none" fill-rule="evenodd">
        <g id="fullLogo" transform="translate(-1.000000, -2.000000)">
            <g id="Group-33" transform="translate(1.000000, 2.000000)">
                <path d="M18.3011902,4.97440669 C13.6662335,4.0417205 7.46175695,4.58749456 3.78604029,8.37115983 C2.22604673,9.97685021 1.03085722,11.71439 0.701851702,14.1683146 C0.587637351,15.0204653 2.00551978e-05,14.0748251 2.00551978e-05,12.4784736 C2.00551978e-05,11.8381054 0.539805704,10.3114444 0.882849862,9.50699247 C2.20809733,6.3991431 7.40038804,2.35318494 18.3011902,4.97440669" id="Fill-1" fill="#8E8E8D"></path>
                <path d="M17.7024724,23.6129071 C18.9363684,23.3970075 19.1769305,22.2990326 18.6354402,21.9616268 C18.3744218,21.7988485 18.0938496,21.8460452 17.8448643,21.8716519 C7.73664351,22.9126895 2.13632981,18.9180452 0.865833027,15.0533423 C0.727051058,14.6310828 0.228879945,13.0066142 0.0241163753,12.1469322 C-0.226172493,19.4196351 7.66845584,25.368723 17.7024724,23.6129071" id="Fill-3" fill="#A4A4A4"></path>
                <path d="M16.0817016,2.65418912 C12.71303,1.95256569 1.68527838,3.53475816 0.506634407,9.06379582 C0.341279301,9.61910962 0.250830359,10.1811515 0.235187305,10.7431933 C0.26206127,10.3430259 0.282918675,10.0321305 0.303876357,9.76813054 C0.361434775,9.246959 0.436240662,8.65800502 0.530500092,8.14165356 C0.555368537,8.01512636 0.583345538,7.87795481 0.614731923,7.7257205 L0.615133027,7.72441506 L0.742684085,7.20414728 L0.745892916,7.19179582 L0.746695124,7.18878326 C0.762839558,7.12813054 0.779886477,7.0678795 0.797936155,7.00752803 C1.00390304,6.31484184 1.36499687,5.65549456 1.77312015,4.97415565 C2.3567264,3.99959498 6.60471812,0.611678661 16.0817016,2.65418912" id="Fill-5" fill="#002D46"></path>
                <path d="M0.606198436,7.58370879 C0.489677737,8.23160837 0.415874609,8.64282176 0.364633579,9.00713975 C0.338862649,9.20416067 0.31660138,9.39967531 0.298250874,9.58735732 C0.273181877,9.87224435 0.200682337,10.1912736 0.235277553,10.6286962 C0.970701656,19.9048469 16.145066,21.8921272 24.8739905,18.3848134 C26.1985361,17.8525958 26.0011929,16.1222862 25.2362877,15.9867213 C25.0160816,15.9476586 24.8135241,16.0435582 24.645261,16.1057172 C13.1005867,20.3768134 0.119659338,16.9488301 0.529186477,8.97811883 C0.562177277,8.33694728 0.568494664,7.6928636 0.731142318,7.05681339 L0.606198436,7.58370879 Z" id="Fill-7" fill="#004471"></path>
                <g id="Group-11" transform="translate(1.905244, 0.023598)">
                    <mask id="mask-2" fill="white">
                        <use xlink:href="#path-1"></use>
                    </mask>
                    <g id="Clip-10"></g>
                    <path d="M0.0648183993,3.9880569 C0.360030911,3.52783933 0.785501932,2.93567197 1.10748813,2.49352971 C1.3344127,2.21316151 1.52944949,1.9785841 1.74925446,1.74882678 C4.30739522,-0.925315481 8.68674848,0.249881172 10.7555424,0.917663598 C8.143754,0.586182427 3.32499135,-0.261047699 0.0648183993,3.9880569" id="Fill-9" fill="#004471" mask="url(#mask-2)"></path>
                </g>
                <path d="M2.82220754,2.75700753 C2.54594719,3.14873975 2.19367764,3.65866444 1.91681564,4.0915682 C1.80621122,4.277041 1.69320018,4.47315816 1.58480184,4.66887364 C-0.041875253,7.85073138 1.14469052,11.4643883 5.12534646,13.927451 C10.7216491,17.3904803 19.7201155,17.2676686 25.2241643,13.6532084 C26.2811735,12.9590159 27.1325167,12.1864971 27.7783943,11.366882 C28.4092305,10.3264469 27.5192811,9.03737573 27.0208092,9.0595682 C26.8944615,9.06529205 26.7330171,9.15586946 26.6415654,9.24323347 C26.0521431,9.99114979 25.2756059,10.6958862 24.3110511,11.3292251 C19.2895305,14.6268653 11.0796344,14.7388318 5.97398215,11.5793674 C1.76219006,8.97300753 0.979034591,4.95486527 3.65229218,1.77662259 L3.62551849,1.80574393 C3.33852861,2.12417071 3.04562245,2.46167699 2.82220754,2.75700753" id="Fill-12" fill="#0971AA"></path>
                <polygon id="Fill-14" fill="#004471" points="66.6554654 17.0243146 74.5351526 17.0243146 74.5351526 15.3981389 68.4820928 15.3981389 68.4820928 12.182641 73.630964 12.182641 73.630964 10.6301724 68.4820928 10.6301724 68.4820928 7.56218912 74.5351526 7.56218912 74.5351526 5.93591297 66.6554654 5.93591297"></polygon>
                <path d="M39.5158292,6.69352971 C41.4351116,6.69352971 42.5611107,7.95026611 42.5611107,7.95026611 L43.1513351,7.13727866 C43.1513351,7.13727866 41.9703848,5.69567197 39.4974787,5.69567197 C36.2494391,5.69567197 33.9980426,8.20884351 33.9980426,11.4987515 C33.9980426,14.7512033 36.2494391,17.2828519 39.4974787,17.2828519 C41.9703848,17.2828519 43.1513351,15.8231699 43.1513351,15.8231699 L42.5611107,15.0282577 C42.5611107,15.0282577 41.4351116,16.2849941 39.5158292,16.2849941 C36.8955173,16.2849941 35.0869396,14.1042075 35.0869396,11.4987515 C35.0869396,8.87441674 36.8955173,6.69352971 39.5158292,6.69352971" id="Fill-16" fill="#004471"></path>
                <polygon id="Fill-18" fill="#004471" points="59.5927668 14.9175464 56.0677649 5.93592301 54.1299315 5.93592301 58.6699269 17.0243247 60.5153059 17.0243247 65.0551007 5.93592301 63.1360189 5.93592301"></polygon>
                <polygon id="Fill-20" fill="#004471" points="49.1574959 11.1474377 48.8253818 11.81281 48.7700294 11.81281 48.4561656 11.1474377 45.3744839 5.93592301 44.138081 5.93592301 48.2534075 12.7552368 48.2534075 17.0243247 49.3051021 17.0243247 49.3051021 12.7552368 53.4206293 5.93592301 52.2026771 5.93592301"></polygon>
                <polygon id="Fill-22" fill="#004471" points="105.706796 7.56218912 105.706796 5.93591297 97.8269084 5.93591297 97.8269084 17.0243146 105.706796 17.0243146 105.706796 15.3981389 99.6538366 15.3981389 99.6538366 12.182641 104.802608 12.182641 104.802608 10.6301724 99.6538366 10.6301724 99.6538366 7.56218912"></polygon>
                <path d="M81.3949628,11.7388218 L78.6452949,11.7388218 L78.6452949,7.56221925 L81.2841579,7.56221925 C82.7605213,7.56221925 83.7202627,8.2459682 83.7202627,9.66899749 C83.7202627,11.0734494 82.7420705,11.7388218 81.3949628,11.7388218 L81.3949628,11.7388218 Z M83.2773437,13.0694661 C84.6980539,12.5335331 85.6208938,11.369282 85.6208938,9.6505205 C85.6208938,7.34039498 83.9785737,5.9359431 81.3763115,5.9359431 L76.8182664,5.9359431 L76.8182664,17.0243448 L78.6452949,17.0243448 L78.6452949,13.3652987 L81.2841579,13.3652987 L83.9230208,17.0243448 L85.9346574,17.0243448 L85.9346574,16.7657674 L83.2773437,13.1617506 L83.2773437,13.0694661 Z" id="Fill-24" fill="#004471"></path>
                <path d="M91.9084691,10.4638293 C90.044539,9.90901757 89.4538132,9.53967866 89.4538132,8.78212218 C89.4538132,7.8948251 90.2476982,7.39594644 91.5025519,7.39594644 C93.3109291,7.39594644 94.363125,8.32009707 94.363125,8.32009707 L95.3595675,6.82305941 C95.3595675,6.82305941 94.2520192,5.69566192 91.5025519,5.69566192 C88.8820395,5.69566192 87.4426779,6.95239833 87.4426779,8.85582929 C87.4426779,10.5928669 88.6421793,11.4247331 91.1150855,12.163913 C93.1082713,12.773754 93.6247929,13.1990259 93.6247929,14.0491682 C93.6247929,14.9543397 92.9789153,15.5826577 91.4843017,15.5826577 C89.6386218,15.5826577 88.3467662,14.5108921 88.3467662,14.5108921 L87.3503237,15.8969674 C87.3503237,15.8969674 88.6975316,17.2828418 91.5392529,17.2828418 C94.3076724,17.2828418 95.6546798,15.8043816 95.6546798,13.9196285 C95.6546798,12.2008669 94.5845344,11.2212854 91.9084691,10.4638293" id="Fill-26" fill="#004471"></path>
                <path d="M107.896358,6.75653222 L107.594808,6.75653222 L107.594808,6.32674142 L107.884279,6.32674142 C108.046118,6.32674142 108.151516,6.39713473 108.151516,6.54354477 C108.151516,6.68804686 108.044194,6.75653222 107.896358,6.75653222 L107.896358,6.75653222 Z M108.102879,6.89350293 C108.258731,6.8382728 108.359961,6.71847364 108.359961,6.54163682 C108.359961,6.30394644 108.179736,6.15944435 107.894327,6.15944435 L107.394381,6.15944435 L107.394381,7.30039833 L107.594808,7.30039833 L107.594808,6.92392971 L107.884279,6.92392971 L108.17375,7.30039833 L108.394381,7.30039833 L108.394381,7.27378745 L108.102879,6.90294226 L108.102879,6.89350293 Z" id="Fill-28" fill="#004471"></path>
                <g id="Group-32" transform="translate(106.693652, 5.546611)">
                    <mask id="mask-4" fill="white">
                        <use xlink:href="#path-3"></use>
                    </mask>
                    <g id="Clip-31"></g>
                    <path d="M1.16447498,0.25668954 C0.654270745,0.25668954 0.239228427,0.672421757 0.239228427,1.18335063 C0.239228427,1.69417908 0.654270745,2.1099113 1.16447498,2.1099113 C1.67467921,2.1099113 2.0898218,1.69417908 2.0898218,1.18335063 C2.0898218,0.672421757 1.67467921,0.25668954 1.16447498,0.25668954 M1.16447498,2.31074812 C0.543766605,2.31074812 0.0386764489,1.80494059 0.0386764489,1.18335063 C0.0386764489,0.561660251 0.543766605,0.0558527197 1.16447498,0.0558527197 C1.78518335,0.0558527197 2.29037378,0.561660251 2.29037378,1.18335063 C2.29037378,1.80494059 1.78518335,2.31074812 1.16447498,2.31074812" id="Fill-30" fill="#004471" mask="url(#mask-4)"></path>
                </g>
            </g>
        </g>
    </g>
</svg>